<?xml version="1.0" encoding="UTF-8" standalone="no"?>
<svg width="614px" height="421px" viewBox="0 0 614 421" version="1.1" xmlns="http://www.w3.org/2000/svg" xmlns:xlink="http://www.w3.org/1999/xlink" xmlns:sketch="http://www.bohemiancoding.com/sketch/ns">
    <!-- Generator: Sketch 3.5.2 (25235) - http://www.bohemiancoding.com/sketch -->
    <title>Group 3</title>
    <desc>Created with Sketch.</desc>
    <defs></defs>
    <g id="Page-1" stroke="none" stroke-width="1" fill="none" fill-rule="evenodd" sketch:type="MSPage">
        <g id="Artboard-3" sketch:type="MSArtboardGroup" transform="translate(-378.000000, -83.000000)">
            <g id="Group-3" sketch:type="MSLayerGroup" transform="translate(378.000000, 83.000000)">
                <rect id="Rectangle-1" fill="#ECF0F2" sketch:type="MSShapeGroup" x="0" y="0" width="614" height="421" rx="4"></rect>
                <g id="Group-4" transform="translate(102.000000, 40.000000)" fill="#FFFFFF" sketch:type="MSShapeGroup">
                    <rect id="Rectangle-1" x="0" y="0" width="410" height="50" rx="4"></rect>
                    <rect id="Rectangle-1" x="210" y="137" width="200" height="150" rx="4"></rect>
                    <rect id="Rectangle-1" x="210" y="60" width="200" height="43" rx="4"></rect>
                    <rect id="Rectangle-1" x="0" y="60" width="200" height="227" rx="4"></rect>
                </g>
                <g id="Group-2" transform="translate(265.000000, 363.760926) rotate(-90.000000) translate(-265.000000, -363.760926) translate(241.000000, 225.760926)" stroke="#156086" sketch:type="MSShapeGroup" stroke-linecap="square" opacity="0.2" stroke-dasharray="1">
                    <path d="M44.0454311,5 L0,5 L1.40994031e-14,275.260727 L47.2835414,275.260727" id="Path-1"></path>
                    <path d="M39.0627555,-1.42108547e-14 L44.5226805,5.45992502 L39,10.9826055" id="Path-2"></path>
                </g>
                <path d="M85.0454311,64.5086972 L41,64.5086972 L41,300.260727 L88.2835414,300.260727" id="Path-1" stroke="#156086" stroke-linecap="square" stroke-dasharray="1" opacity="0.2" sketch:type="MSShapeGroup"></path>
                <path d="M568.045431,65 L524,65 L524,255.259995 L571.283541,255.259995" id="Path-1" stroke="#156086" stroke-linecap="square" stroke-dasharray="1" opacity="0.2" sketch:type="MSShapeGroup" transform="translate(547.641771, 160.129997) rotate(-180.000000) translate(-547.641771, -160.129997) "></path>
                <path d="M523.494644,59.0173945 L528.954569,64.4773195 L523.431888,70" id="Path-2" stroke="#156086" stroke-linecap="square" stroke-dasharray="1" opacity="0.2" sketch:type="MSShapeGroup" transform="translate(526.193229, 64.508697) rotate(-180.000000) translate(-526.193229, -64.508697) "></path>
                <path d="M428.494644,202.017394 L433.954569,207.477319 L428.431888,213" id="Path-2" stroke="#156086" stroke-linecap="square" stroke-dasharray="1" opacity="0.2" sketch:type="MSShapeGroup" transform="translate(431.193229, 207.508697) rotate(-180.000000) translate(-431.193229, -207.508697) "></path>
                <path d="M419.062755,149 L424.522681,154.459925 L419,159.982606" id="Path-2" stroke="#156086" stroke-linecap="square" stroke-dasharray="1" opacity="0.2" sketch:type="MSShapeGroup" transform="translate(421.761340, 154.491303) rotate(-90.000000) translate(-421.761340, -154.491303) "></path>
                <g id="Group-6" transform="translate(254.500000, 199.500000) rotate(-233.000000) translate(-254.500000, -199.500000) translate(248.500000, 153.500000)" stroke="#156086" sketch:type="MSShapeGroup" stroke-linecap="square" opacity="0.2" stroke-dasharray="1">
                    <path d="M3.06275549,-2 L8.52268051,3.45992502 L3,8.98260553" id="Path-2" transform="translate(5.761340, 3.491303) rotate(-90.000000) translate(-5.761340, -3.491303) "></path>
                    <path d="M6,1 L6,92" id="Path-5"></path>
                </g>
                <path d="M399.062755,160 L404.522681,165.459925 L399,170.982606" id="Path-2" stroke="#156086" stroke-linecap="square" stroke-dasharray="1" opacity="0.2" sketch:type="MSShapeGroup" transform="translate(401.761340, 165.491303) rotate(-270.000000) translate(-401.761340, -165.491303) "></path>
                <path d="M83.0627555,295 L88.5226805,300.459925 L83,305.982606" id="Path-2" stroke="#156086" stroke-linecap="square" stroke-dasharray="1" opacity="0.2" sketch:type="MSShapeGroup"></path>
                <path d="M402,152 L402,168" id="Path-5" stroke="#156086" stroke-linecap="square" stroke-dasharray="1" opacity="0.2" sketch:type="MSShapeGroup"></path>
                <path d="M422,152 L422,168" id="Path-5" stroke="#156086" stroke-linecap="square" stroke-dasharray="1" opacity="0.2" sketch:type="MSShapeGroup"></path>
                <path d="M122,142 L283.245155,142" id="Path-29" stroke="#156086" stroke-linecap="square" stroke-dasharray="1" opacity="0.2" sketch:type="MSShapeGroup"></path>
                <path d="M430,208 L487,208 L487,299.350972 L333.855592,299.350972 L333.855592,207.920412 L392.186591,207.920412" id="Path-27" stroke="#156086" stroke-linecap="square" stroke-dasharray="1" opacity="0.2" sketch:type="MSShapeGroup"></path>
                <g id="Group-5" transform="translate(55.000000, 57.000000)" font-weight="normal" font-family="Consolas" sketch:type="MSTextLayer" font-size="13" fill="#156086">
                    <text id="[4]-EVENT-LOOP" sketch:alignment="middle" line-spacing="13">
                        <tspan x="307.467773" y="198">[4] EVENT LOOP</tspan>
                    </text>
                    <text id="[5]-STORAGE" sketch:alignment="middle" line-spacing="13">
                        <tspan x="318.188965" y="67">[5] STORAGE</tspan>
                    </text>
                    <text id="[3]-EVENT-QUEUE" line-spacing="20">
                        <tspan x="65" y="66">[3] EVENT QUEUE</tspan>
                        <tspan x="65" y="88.2216797"></tspan>
                        <tspan x="65" y="110.22168">Oldest event </tspan>
                        <tspan x="65" y="132.443359">Event </tspan>
                        <tspan x="65" y="154.665039">Event</tspan>
                        <tspan x="65" y="176.886719">Event</tspan>
                        <tspan x="65" y="199.108398">Event </tspan>
                        <tspan x="65" y="221.330078">Event </tspan>
                        <tspan x="65" y="243.551758">Newest event</tspan>
                    </text>
                    <text id="[1]-OS-[network-/-di" sketch:alignment="middle" line-spacing="13">
                        <tspan x="166.804199" y="10">[1] OS [network / disk]  </tspan>
                    </text>
                    <text id="[7]-Register-interes" transform="translate(493.708130, 104.902710) rotate(-270.000000) translate(-493.708130, -104.902710) " sketch:alignment="middle" line-spacing="13">
                        <tspan x="418.65979" y="107.29187">[7] Register interest</tspan>
                    </text>
                    <text id="[2]-ADD-IO-READY-EVE" transform="translate(8.583740, 125.208130) rotate(-90.000000) translate(-8.583740, -125.208130) " sketch:alignment="middle" line-spacing="13">
                        <tspan x="-70.0383301" y="127.59729">[2] ADD IO READY EVENT</tspan>
                    </text>
                    <text id="[6]-ADD-EVENT" sketch:alignment="middle" line-spacing="13">
                        <tspan x="163.041504" y="310">[6] ADD EVENT</tspan>
                    </text>
                </g>
            </g>
        </g>
    </g>
</svg>